<svg width="512" height="512" viewBox="0 0 512 512" fill="none" xmlns="http://www.w3.org/2000/svg">
<rect width="512" height="512" fill="#8CD5FF"/>
<g clip-path="url(#clip0_1_8)">
<path d="M261.171 128.951C249.726 131.374 242.218 135.214 231.322 144.312C229.079 146.141 227.11 147.649 226.973 147.649C226.789 147.649 224.363 145.912 221.616 143.809C214.795 138.689 211.911 136.906 206.234 134.346C196.574 130.048 189.386 128.631 179.68 129.042C169.654 129.545 163.52 131.283 149.465 137.683C136.051 143.809 122.957 148.289 112.84 150.255C107.804 151.215 104.691 151.49 96.0838 151.718C83.1277 152.038 84.1806 151.535 80.1061 159.81C77.6797 164.748 77.5881 164.885 75.0244 166.211C72.8269 167.308 72.1859 167.948 70.904 170.28C69.1643 173.434 68.615 176.634 69.2559 179.88C69.5306 181.16 70.5836 186.052 71.5908 190.852C73.5136 199.95 78.87 225.781 81.4795 238.627C82.3494 242.788 83.8602 250.057 84.9131 254.857C85.9203 259.612 87.7058 267.841 88.8045 273.144C89.9033 278.402 92.3755 290.06 94.2983 298.974C96.1753 307.889 98.1897 317.262 98.6933 319.776C99.1969 322.29 100.662 329.057 101.898 334.863C105.423 351.138 108.216 364.488 109.406 370.797C110.596 377.197 111.146 378.523 113.389 380.626C115.953 383.095 118.196 384.009 121.538 384.009C124.789 384.009 124.377 384.055 154.043 379.666C165.259 378.02 180.001 375.871 186.777 374.866C193.598 373.86 204.586 372.214 211.27 371.208C217.954 370.202 231.047 368.237 240.341 366.865C249.68 365.494 258.562 364.168 260.072 363.939C265.475 362.979 265.978 363.116 269.046 366.179C270.556 367.642 272.525 369.105 273.441 369.425C276.691 370.477 290.471 369.014 295.873 367.002C299.17 365.768 300.589 364.442 302.512 360.785L304.16 357.676L309.791 357.127C312.904 356.853 320.275 356.076 326.181 355.436C341.472 353.836 353.054 352.647 366.468 351.321C372.878 350.681 384.964 349.447 393.25 348.532C408.404 346.932 434.408 344.143 442.374 343.321C444.709 343.046 447.318 342.589 448.096 342.223C449.882 341.492 451.85 339.435 452.491 337.697C453.865 334.086 453.224 332.257 439.489 298.974C437.063 293.077 426.442 266.561 418.11 245.485C415.088 237.804 408.633 221.666 403.78 209.597C388.535 171.743 383.59 159.445 382.034 155.421C380.065 150.392 377.822 147.832 373.244 145.318C369.765 143.443 369.673 143.352 367.613 139.42C366.468 137.18 364.912 134.848 364.088 134.163C362.302 132.654 361.295 132.7 351.36 134.803C333.048 138.643 316.75 137.729 294.592 131.603C281.544 127.945 270.19 127.076 261.171 128.951Z" fill="black"/>
<path d="M283.696 132.837C285.802 133.203 291.936 134.62 297.338 135.991C318.581 141.295 332.132 141.98 350.536 138.689C360.791 136.814 361.158 136.814 362.485 138.232C363.126 138.917 365.186 143.581 367.384 149.387C369.49 154.827 378.097 176.497 386.52 197.482C394.898 218.466 402.681 237.896 403.78 240.685C406.39 247.405 423.466 289.968 432.302 311.913C434.454 317.216 434.774 318.313 434.225 318.679C432.439 319.776 422.779 322.336 414.539 323.845C401.583 326.222 397.554 326.588 385.239 326.588C373.015 326.588 369.581 326.314 353.878 324.073C341.334 322.29 331.858 321.925 324.807 322.931C307.365 325.445 293.31 331.251 283.741 339.846C282.185 341.218 281.132 341.903 280.766 341.675C280.445 341.492 278.843 340.349 277.195 339.16C270.877 334.588 263.323 332.394 253.068 332.028C240.799 331.571 231.322 333.4 212.643 339.663C196.162 345.241 190.256 347.069 178.994 349.95C161.734 354.384 143.559 357.493 134.586 357.493C129.87 357.493 129.916 357.539 127.673 350.178C126.803 347.298 124.606 340.395 122.82 334.909C118.196 320.37 117.509 318.084 108.765 285.488C107.071 279.087 103.18 263.315 98.3728 243.199C94.3899 226.466 92.6044 219.015 89.9491 208.225C84.2264 184.863 81.6169 173.617 80.7928 168.725C80.4266 166.622 80.5181 165.936 81.2506 164.199C81.7542 163.056 82.2578 162.233 82.3494 162.325C82.5325 162.508 86.4697 178.554 89.2623 190.624C90.178 194.51 92.1466 202.648 93.6116 208.682C95.1224 214.717 96.7705 221.62 97.2741 223.998C98.0981 227.747 101.349 241.188 106.339 261.258C108.536 270.172 112.702 286.128 115.587 296.689C118.654 307.935 120.668 315.936 121.767 321.056C122.179 323.022 122.637 324.576 122.728 324.439C122.82 324.348 122.637 321.376 122.271 317.902C121.263 308.758 119.066 298.883 109.406 260.16C106.705 249.462 103.409 235.976 102.035 230.215C100.662 224.409 98.5102 215.449 97.2741 210.282C84.6842 157.524 85.1878 159.902 86.4239 158.027C87.9347 155.741 89.9491 155.239 99.3342 154.919C111.329 154.461 119.524 152.861 132.8 148.381C137.516 146.826 150.701 141.432 151.571 140.746C152.349 140.106 162.009 136.357 165.351 135.351C174.324 132.7 184.259 132.288 192.911 134.208C204.173 136.723 213.696 141.66 222.349 149.524C226.377 153.181 226.515 153.456 229.124 165.251C229.903 168.771 232.146 178.143 234.16 186.052C236.129 193.961 239.837 209.002 242.355 219.426C250.779 253.897 257.692 278.036 268.267 309.672C276.279 333.674 278.568 339.115 275.18 325.856C272.25 314.564 271.152 310.678 268.725 302.861C260.393 276.39 252.335 247.131 244.919 216.454C243.5 210.648 241.165 201.093 239.654 195.196C237.411 186.235 231.368 161.273 229.628 153.593L229.17 151.535L233.061 147.741C244.232 136.86 258.653 131.328 274.31 131.923C277.378 132.014 281.635 132.425 283.696 132.837Z" fill="white"/>
<path d="M79.6941 178.326C80.5639 182.212 82.0289 188.429 82.8987 192.224C86.8817 209.368 88.2094 215.357 88.8503 219.426C89.2166 221.803 90.4527 227.884 91.5514 232.913C92.6502 237.942 94.2067 245.759 94.985 250.285C95.7633 254.811 97.3199 262.126 98.4186 266.515C99.5174 270.904 101.074 277.579 101.852 281.373C102.63 285.122 104.462 293.306 105.973 299.569C107.483 305.786 109.452 314.93 110.322 319.913C111.237 324.851 112.519 331.068 113.252 333.72C113.984 336.371 115.22 341.172 115.999 344.372C118.196 353.47 121.035 363.071 122.042 364.762L122.957 366.316L120.76 368.511L120.027 366.545C118.562 362.705 111.833 333.811 110.093 323.891C108.857 316.941 105.881 303.638 103.867 296.231C103.043 293.077 101.532 286.585 100.525 281.83C99.5174 277.03 98.0524 270.447 97.2741 267.201C96.4958 263.909 95.3513 258.56 94.7561 255.314C93.4284 248.091 91.8719 241.005 89.7202 231.953C88.8503 228.204 87.4769 222.26 86.7444 218.74C85.5083 212.98 83.4939 204.248 78.6869 184.223C75.94 172.885 75.9858 172.931 76.9014 171.88C77.3592 171.377 77.817 171.057 77.9086 171.148C78.0001 171.24 78.8242 174.486 79.6941 178.326Z" fill="white"/>
<path d="M89.2623 238.627C91.6888 248.822 94.9392 262.4 96.45 268.801C97.9608 275.201 99.7005 282.516 100.25 285.031C100.799 287.545 101.898 292.071 102.676 295.089C104.599 302.495 107.071 313.558 108.262 320.233C110.871 334.863 116.914 361.013 118.837 365.859C120.165 369.288 120.211 369.471 119.478 370.614C119.066 371.254 118.517 371.574 118.333 371.391C117.555 370.568 112.565 348.669 108.078 326.405C106.43 318.222 104.279 308.027 103.226 303.775C102.173 299.477 100.616 292.711 99.7463 288.688C97.5945 278.722 95.8549 270.995 92.9249 258.286C91.5514 252.388 89.1708 241.873 87.6142 234.97C86.1034 228.067 84.4553 220.843 83.9517 218.877C83.4939 216.957 83.0819 215.129 83.1276 214.763C83.1734 213.528 85.0047 220.523 89.2623 238.627Z" fill="white"/>
<path d="M89.3539 217.232C89.2166 217.597 89.0792 217.46 89.0792 216.957C89.0335 216.454 89.1708 216.18 89.3081 216.363C89.4455 216.5 89.4913 216.912 89.3539 217.232Z" fill="white"/>
<path d="M91.9634 226.969C92.6044 229.712 94.0694 236.433 95.2139 241.828C102.127 273.601 109.864 303.226 117.189 325.948C118.517 330.108 120.668 337.103 121.996 341.492C123.278 345.881 124.972 351.55 125.704 354.018C127.261 359.047 127.215 360.556 125.475 362.75L124.377 364.122L123.827 362.065C123.553 360.922 122.912 358.773 122.454 357.264C121.95 355.756 120.851 351.915 119.982 348.761C119.112 345.606 117.143 339.206 115.632 334.588C112.565 325.216 111.008 319.456 109.864 313.421C109.452 311.181 108.216 305.421 107.071 300.62C105.927 295.82 104.004 287.454 102.768 282.059C101.532 276.664 99.5174 267.795 98.2813 262.4C96.9994 257.006 95.0308 247.405 93.8405 241.142C92.6959 234.833 91.2309 227.289 90.59 224.272C89.9949 221.3 89.4913 218.603 89.537 218.329C89.5828 217.46 90.8189 221.758 91.9634 226.969Z" fill="white"/>
<path d="M435.186 323.479C435.964 324.393 435.278 324.851 432.439 325.262C431.295 325.445 427.769 326.085 424.611 326.725C421.452 327.365 414.447 328.691 409.045 329.651C401.308 331.022 399.98 331.388 402.864 331.205C406.161 330.977 410.418 330.337 431.02 326.816L436.285 325.948L437.155 326.954L437.979 328.005L430.974 329.011C406.802 332.485 406.618 332.531 386.154 332.531C367.842 332.577 366.835 332.531 358.685 331.343C346.874 329.605 341.334 329.148 333.139 329.148C317.208 329.148 301.55 333.171 289.83 340.212C286.58 342.178 283.833 343.732 283.741 343.641C283.467 343.321 290.013 338.566 293.447 336.554C300.497 332.394 312.217 328.554 322.015 327.045C329.477 325.948 341.426 326.131 352.276 327.502C370.085 329.742 371.184 329.834 382.95 329.788C391.282 329.788 396.226 329.56 400.255 329.011C405.794 328.234 421.177 325.354 428.731 323.662C433.584 322.61 434.408 322.565 435.186 323.479Z" fill="white"/>
<path d="M439.123 326.039C438.986 326.359 438.894 326.131 438.894 325.491C438.894 324.851 438.986 324.622 439.123 324.896C439.215 325.216 439.215 325.765 439.123 326.039Z" fill="white"/>
<path d="M438.574 329.605C438.94 330.2 438.482 330.291 425.526 332.12C407.076 334.726 398.332 335.594 382.263 336.463C372.74 336.966 371.321 336.92 346.782 334.863C337.443 334.086 323.48 333.994 317.94 334.634C308.967 335.731 298.849 338.749 290.059 343.046C287.267 344.372 284.978 345.332 284.978 345.149C284.978 344.738 289.281 341.949 293.264 339.8C299.353 336.509 310.752 333.08 320.916 331.617C328.607 330.474 345.546 331.205 360.746 333.308C366.239 334.086 383.59 334.314 396.226 333.766C409.64 333.217 413.165 332.851 426.9 330.748C437.704 329.057 438.208 329.011 438.574 329.605Z" fill="white"/>
<path d="M433.767 336.051C427.861 336.783 419.117 337.789 414.31 338.246C409.548 338.749 400.758 339.663 394.853 340.303C388.947 340.943 379.562 341.858 374.022 342.406C368.483 342.909 356.625 344.098 347.698 344.966C338.771 345.835 329.614 346.749 327.325 346.978C325.082 347.207 317.665 347.938 310.844 348.578C304.068 349.218 297.659 349.858 296.652 349.995C295.049 350.178 294.958 350.132 295.965 349.721C297.476 349.035 304.48 348.167 317.253 346.978C323.068 346.475 334.192 345.332 341.975 344.463C349.804 343.641 357.816 342.818 359.83 342.635C367.567 342.04 418.201 337.011 435.369 335.091C437.155 334.908 439.901 334.771 441.55 334.726C443.335 334.726 440.222 335.274 433.767 336.051Z" fill="white"/>
<path d="M350.216 336.691C354.245 337.057 359.693 337.377 362.348 337.423C365.873 337.469 366.789 337.56 365.782 337.88C365.049 338.063 353.695 338.337 340.602 338.429C320.687 338.566 316.063 338.703 312.446 339.343C307.136 340.303 298.071 342.863 293.356 344.738C288.457 346.658 287.679 346.155 292.074 343.915C298.895 340.44 306.861 338.109 317.94 336.326C320.962 335.823 343.532 336.097 350.216 336.691Z" fill="white"/>
<path d="M257.28 336.92C264.788 337.697 272.937 340.577 276.92 343.869C279.53 346.018 278.293 346.338 274.402 344.463C270.236 342.498 264.559 341.035 261.446 341.08L259.111 341.126L260.942 341.583C261.95 341.812 264.513 342.452 266.665 342.955C270.19 343.778 277.103 346.749 276.645 347.207C276.554 347.344 274.402 346.704 271.838 345.835C261.217 342.223 248.536 340.852 238.189 342.132C229.628 343.229 222.074 344.829 208.752 348.349C177.758 356.579 153.86 361.196 135.273 362.522C126.666 363.116 127.352 363.162 127.948 362.065C128.863 360.327 130.649 359.916 137.791 359.642C149.694 359.185 167.686 356.167 186.09 351.55C195.979 349.035 197.123 348.715 209.896 344.783C231.963 337.926 245.468 335.686 257.28 336.92Z" fill="white"/>
<path d="M342.891 340.075L351.132 340.349L346.325 340.715C343.669 340.897 336.39 341.355 330.072 341.72C313.408 342.726 308.372 343.366 295.278 346.246C288.594 347.755 290.105 346.841 298.346 344.463C305.625 342.36 314.461 340.577 320.687 339.983C323.296 339.709 334.009 339.755 342.891 340.075Z" fill="white"/>
<path d="M261.4 344.921C265.978 345.744 272.205 347.527 273.99 348.578C275.043 349.172 275.043 349.218 274.219 349.264C273.715 349.264 269.595 348.487 265.063 347.572C257.417 346.018 256.273 345.881 249.039 345.926C236.495 345.972 229.948 347.069 202.571 353.79C188.791 357.173 175.102 360.236 166.77 361.79C153.219 364.396 133.029 366.819 127.49 366.545C124.88 366.408 124.743 366.362 125.338 365.539C125.796 364.945 126.666 364.671 128.68 364.533C149.831 363.162 177.391 358.362 203.487 351.458C218.549 347.481 229.948 345.195 240.799 344.052C244.507 343.686 257.371 344.189 261.4 344.921Z" fill="white"/>
<path d="M257.005 347.481C259.935 347.755 262.728 348.167 263.186 348.349C263.689 348.532 260.668 348.807 256.547 348.944C245.926 349.355 235.534 351.001 212.643 355.893C178.948 363.116 160.864 366.134 135.044 368.922C130.282 369.425 125.43 369.974 124.377 370.157C122.454 370.385 122.362 370.34 122.545 369.334C122.683 368.328 122.957 368.237 125.201 368.099C129.825 367.917 143.651 366.591 151.067 365.676C164.527 364.031 179.36 360.922 216.26 352.053C234.71 347.618 245.651 346.384 257.005 347.481Z" fill="white"/>
<path d="M270.053 353.333C270.19 353.516 268.817 353.836 266.985 353.973C264.01 354.247 257.509 355.253 229.811 359.779C225.279 360.51 214.795 362.156 206.463 363.436C189.02 366.088 176.888 367.962 165.259 369.882C155.279 371.483 131.244 375.049 125.063 375.826C121.63 376.283 120.485 376.283 120.073 375.871C119.661 375.46 119.982 375.323 121.492 375.323C123.461 375.323 133.808 373.814 157.477 370.065C164.527 368.968 176.979 367.002 185.174 365.722C193.369 364.488 203.258 362.933 207.149 362.339C211.041 361.699 217.221 360.785 220.884 360.236C224.546 359.687 231.551 358.544 236.449 357.722C244.598 356.304 255.723 354.521 262.774 353.424C266.436 352.875 269.778 352.83 270.053 353.333Z" fill="white"/>
<path d="M297.659 354.841C297.522 355.207 297.384 355.07 297.384 354.567C297.338 354.064 297.476 353.79 297.613 353.973C297.75 354.11 297.796 354.521 297.659 354.841Z" fill="white"/>
<path d="M296.102 361.059C295.599 361.699 294.454 362.613 293.539 363.116C291.295 364.259 285.206 365.311 280.17 365.402C276.6 365.494 275.821 365.356 274.402 364.442C273.486 363.893 272.388 362.705 271.976 361.882C270.923 359.642 271.106 359.23 272.205 361.288C273.303 363.391 276.004 364.808 279.026 364.808C282.917 364.808 291.021 363.482 292.989 362.522C294.18 361.928 295.233 361.013 295.782 359.962C296.423 358.819 296.698 358.59 296.789 359.139C296.881 359.55 296.56 360.419 296.102 361.059Z" fill="white"/>
</g>
<defs>
<clipPath id="clip0_1_8">
<rect width="384" height="256" fill="white" transform="translate(69 128)"/>
</clipPath>
</defs>
</svg>
